<?xml version="1.0" standalone="no"?>
<!DOCTYPE svg PUBLIC "-//W3C//DTD SVG 20010904//EN"
 "http://www.w3.org/TR/2001/REC-SVG-20010904/DTD/svg10.dtd">
<svg version="1.0" xmlns="http://www.w3.org/2000/svg"
 width="225.000000pt" height="225.000000pt" viewBox="0 0 225.000000 225.000000"
 preserveAspectRatio="xMidYMid meet">

<g transform="translate(0.000000,225.000000) scale(0.100000,-0.100000)"
fill="#000000" stroke="none">
<path d="M467 2074 c-349 -84 -491 -466 -322 -866 91 -216 354 -526 690 -814
193 -165 287 -234 304 -224 38 20 266 210 397 329 356 326 565 615 620 862 24
105 24 287 0 364 -56 186 -190 311 -375 351 -259 55 -493 -65 -626 -319 l-29
-55 -39 82 c-49 99 -152 207 -239 249 -115 55 -259 71 -381 41z m1132 -165
c74 -69 38 -160 -89 -224 -98 -50 -182 -56 -195 -15 -8 26 45 135 93 191 59
69 145 91 191 48z m-1056 0 c49 -25 67 -51 67 -94 0 -52 -18 -77 -105 -140
-94 -69 -119 -111 -165 -275 -12 -45 -35 -35 -62 27 -14 32 -29 71 -32 87 -12
52 -8 166 9 216 41 124 201 224 288 179z"/>
</g>
</svg>
